<mxfile host="app.diagrams.net" modified="2023-05-25T12:28:59.558Z" agent="Mozilla/5.0 (Macintosh; Intel Mac OS X 10_15_7) AppleWebKit/537.36 (KHTML, like Gecko) Chrome/113.0.0.0 Safari/537.36" version="21.3.3" etag="jjNzLiu1ejFMqmnAws7G" type="github">
  <diagram name="Page-1" id="0KFL5eHQTMtoy3ooleH-">
    <mxGraphModel>
      <root>
        <mxCell id="0" />
        <mxCell id="1" parent="0" />
      </root>
    </mxGraphModel>
  </diagram>
</mxfile>
